# xmcd CD database file
#
# Track frame offsets:
#	150
#	3502
#	19811
#	41865
#	53312
#	89033
#	104715
#	129750
#	144258
#	161378
#	171016
#	178619
#
# Disc length: 2708 seconds
#
# Revision: 0
# Processed by: cddbd v1.5.2PL0 Copyright (c) Steve Scherf et al.
# Submitted via: CDex 1.79
#
DISCID=930a920c
DTITLE=Jean-Marc FOLTZ and Stephan OLIVA - GERSHWIN
DYEAR=2016
DGENRE=Jazz
TTITLE0=Somehow
TTITLE1=The Man I Love
TTITLE2=Fascinating Rhythm - Someone To Watch Over Me (to Woody Allen)
TTITLE3='S Wonderful (Morning)
TTITLE4=My Man's Gone Now
TTITLE5=A Foggy Date - Rhapsody In Blue Theme
TTITLE6=I Can't Get Started
TTITLE7=Rhapsody In Blue Theme (Gershwin's Dream)
TTITLE8=Summertime
TTITLE9='S Wonderful (Evening)
TTITLE10=Prelude N.2, Blue Lullaby (The Bridge)
TTITLE11=I Love(s) You Porgy
EXTD=YEAR: 2016
EXTT0=
EXTT1=
EXTT2=
EXTT3=
EXTT4=
EXTT5=
EXTT6=
EXTT7=
EXTT8=
EXTT9=
EXTT10=
EXTT11=
PLAYORDER=
